{
	"asset":{
		"generator":"Khronos glTF Blender I/O v3.6.27",
		"version":"2.0"
	},
	"scene":0,
	"scenes":[
		{
			"name":"Scene",
			"nodes":[
				2,
				3
			]
		}
	],
	"nodes":[
		{
			"mesh":0,
			"name":"\u041f\u043b\u043e\u0441\u043a\u043e\u0441\u0442\u044c.001",
			"rotation":[
				0,
				0,
				0.7071068286895752,
				0.7071068286895752
			],
			"scale":[
				0.02087402157485485,
				0.02087402157485485,
				0.02087402157485485
			],
			"translation":[
				0.9332708120346069,
				0.024885812774300575,
				-0.07729817926883698
			]
		},
		{
			"mesh":1,
			"name":"\u041f\u043b\u043e\u0441\u043a\u043e\u0441\u0442\u044c.002",
			"rotation":[
				0.7070931792259216,
				0.7070930600166321,
				0.004402263555675745,
				0.004402263555675745
			],
			"scale":[
				0.02087402157485485,
				0.02087402157485485,
				0.02087402157485485
			],
			"translation":[
				-0.8183817863464355,
				0.024885812774300575,
				0.05140545964241028
			]
		},
		{
			"children":[
				0,
				1
			],
			"name":"\u041e\u043a\u0440\u0443\u0436\u043d\u043e\u0441\u0442\u044c\u0411\u0435\u0437\u044c\u0435",
			"scale":[
				151.014892578125,
				151.014892578125,
				151.014892578125
			],
			"translation":[
				-61.56287384033203,
				4.597233772277832,
				0
			]
		},
		{
			"name":"\u0422\u0440\u0430\u0435\u043a\u0442\u043e\u0440\u0438\u044fNurbs",
			"translation":[
				0,
				17.766319274902344,
				82.98031616210938
			]
		}
	],
	"animations":[
		{
			"channels":[
				{
					"sampler":0,
					"target":{
						"node":2,
						"path":"translation"
					}
				},
				{
					"sampler":1,
					"target":{
						"node":2,
						"path":"rotation"
					}
				}
			],
			"name":"\u041e\u043a\u0440\u0443\u0436\u043d\u043e\u0441\u0442\u044c\u0411\u0435\u0437\u044c\u0435Action.001",
			"samplers":[
				{
					"input":21,
					"interpolation":"STEP",
					"output":22
				},
				{
					"input":21,
					"interpolation":"STEP",
					"output":23
				}
			]
		},
		{
			"channels":[
				{
					"sampler":0,
					"target":{
						"node":0,
						"path":"translation"
					}
				},
				{
					"sampler":1,
					"target":{
						"node":0,
						"path":"rotation"
					}
				}
			],
			"name":"\u041f\u043b\u043e\u0441\u043a\u043e\u0441\u0442\u044c.001Action",
			"samplers":[
				{
					"input":24,
					"interpolation":"LINEAR",
					"output":25
				},
				{
					"input":24,
					"interpolation":"LINEAR",
					"output":26
				}
			]
		},
		{
			"channels":[
				{
					"sampler":0,
					"target":{
						"node":1,
						"path":"translation"
					}
				},
				{
					"sampler":1,
					"target":{
						"node":1,
						"path":"rotation"
					}
				}
			],
			"name":"\u041f\u043b\u043e\u0441\u043a\u043e\u0441\u0442\u044c.002Action",
			"samplers":[
				{
					"input":24,
					"interpolation":"LINEAR",
					"output":27
				},
				{
					"input":24,
					"interpolation":"LINEAR",
					"output":28
				}
			]
		}
	],
	"materials":[
		{
			"doubleSided":true,
			"name":"\u041c\u0430\u0442\u0435\u0440\u0438\u0430\u043b",
			"pbrMetallicRoughness":{
				"baseColorFactor":[
					0.037409912794828415,
					0.037409912794828415,
					0.037409912794828415,
					1
				],
				"metallicFactor":0,
				"roughnessFactor":0.5
			}
		},
		{
			"doubleSided":true,
			"name":"\u041c\u0430\u0442\u0435\u0440\u0438\u0430\u043b.001",
			"pbrMetallicRoughness":{
				"baseColorFactor":[
					0.006108929868787527,
					0.008605544455349445,
					0.8000000715255737,
					1
				],
				"metallicFactor":0,
				"roughnessFactor":0.5
			}
		},
		{
			"doubleSided":true,
			"name":"\u041c\u0430\u0442\u0435\u0440\u0438\u0430\u043b.002",
			"pbrMetallicRoughness":{
				"baseColorFactor":[
					0.8000000715255737,
					0,
					0.0041839564219117165,
					1
				],
				"metallicFactor":0,
				"roughnessFactor":0.5
			}
		},
		{
			"doubleSided":true,
			"name":"\u041c\u0430\u0442\u0435\u0440\u0438\u0430\u043b.003",
			"pbrMetallicRoughness":{
				"baseColorFactor":[
					0.037409912794828415,
					0.037409912794828415,
					0.037409912794828415,
					1
				],
				"metallicFactor":0,
				"roughnessFactor":0.5
			}
		},
		{
			"doubleSided":true,
			"name":"\u041c\u0430\u0442\u0435\u0440\u0438\u0430\u043b.004",
			"pbrMetallicRoughness":{
				"baseColorFactor":[
					0.006108929868787527,
					0.008605544455349445,
					0.8000000715255737,
					1
				],
				"metallicFactor":0,
				"roughnessFactor":0.5
			}
		},
		{
			"doubleSided":true,
			"name":"\u041c\u0430\u0442\u0435\u0440\u0438\u0430\u043b.005",
			"pbrMetallicRoughness":{
				"baseColorFactor":[
					0.8000000715255737,
					0,
					0.0041839564219117165,
					1
				],
				"metallicFactor":0,
				"roughnessFactor":0.5
			}
		}
	],
	"meshes":[
		{
			"name":"\u041f\u043b\u043e\u0441\u043a\u043e\u0441\u0442\u044c.001",
			"primitives":[
				{
					"attributes":{
						"POSITION":0,
						"NORMAL":1,
						"TEXCOORD_0":2
					},
					"indices":3,
					"material":0
				},
				{
					"attributes":{
						"POSITION":4,
						"NORMAL":5,
						"TEXCOORD_0":6
					},
					"indices":7,
					"material":1
				},
				{
					"attributes":{
						"POSITION":8,
						"NORMAL":9,
						"TEXCOORD_0":10
					},
					"indices":11,
					"material":2
				}
			]
		},
		{
			"name":"\u041f\u043b\u043e\u0441\u043a\u043e\u0441\u0442\u044c.002",
			"primitives":[
				{
					"attributes":{
						"POSITION":12,
						"NORMAL":13,
						"TEXCOORD_0":14
					},
					"indices":3,
					"material":3
				},
				{
					"attributes":{
						"POSITION":15,
						"NORMAL":16,
						"TEXCOORD_0":17
					},
					"indices":7,
					"material":4
				},
				{
					"attributes":{
						"POSITION":18,
						"NORMAL":19,
						"TEXCOORD_0":20
					},
					"indices":11,
					"material":5
				}
			]
		}
	],
	"accessors":[
		{
			"bufferView":0,
			"componentType":5126,
			"count":6681,
			"max":[
				1,
				0,
				4.703080177307129
			],
			"min":[
				-3.650570869445801,
				-5.908857345581055,
				-1.0265671014785767
			],
			"type":"VEC3"
		},
		{
			"bufferView":1,
			"componentType":5126,
			"count":6681,
			"type":"VEC3"
		},
		{
			"bufferView":2,
			"componentType":5126,
			"count":6681,
			"type":"VEC2"
		},
		{
			"bufferView":3,
			"componentType":5123,
			"count":11148,
			"type":"SCALAR"
		},
		{
			"bufferView":4,
			"componentType":5126,
			"count":1064,
			"max":[
				0.21903936564922333,
				-0.9891673922538757,
				4.629909038543701
			],
			"min":[
				-2.86961030960083,
				-4.904422283172607,
				0.8414068222045898
			],
			"type":"VEC3"
		},
		{
			"bufferView":5,
			"componentType":5126,
			"count":1064,
			"type":"VEC3"
		},
		{
			"bufferView":6,
			"componentType":5126,
			"count":1064,
			"type":"VEC2"
		},
		{
			"bufferView":7,
			"componentType":5123,
			"count":1680,
			"type":"SCALAR"
		},
		{
			"bufferView":8,
			"componentType":5126,
			"count":64,
			"max":[
				0.08657234162092209,
				-1.1216343641281128,
				2.676513433456421
			],
			"min":[
				-2.7371435165405273,
				-4.771955490112305,
				-1.0265671014785767
			],
			"type":"VEC3"
		},
		{
			"bufferView":9,
			"componentType":5126,
			"count":64,
			"type":"VEC3"
		},
		{
			"bufferView":10,
			"componentType":5126,
			"count":64,
			"type":"VEC2"
		},
		{
			"bufferView":11,
			"componentType":5123,
			"count":180,
			"type":"SCALAR"
		},
		{
			"bufferView":12,
			"componentType":5126,
			"count":6681,
			"max":[
				1,
				0,
				4.703080177307129
			],
			"min":[
				-3.650570869445801,
				-5.908857345581055,
				-1.0265671014785767
			],
			"type":"VEC3"
		},
		{
			"bufferView":13,
			"componentType":5126,
			"count":6681,
			"type":"VEC3"
		},
		{
			"bufferView":14,
			"componentType":5126,
			"count":6681,
			"type":"VEC2"
		},
		{
			"bufferView":15,
			"componentType":5126,
			"count":1064,
			"max":[
				0.21903936564922333,
				-0.9891673922538757,
				4.629909038543701
			],
			"min":[
				-2.86961030960083,
				-4.904422283172607,
				0.8414068222045898
			],
			"type":"VEC3"
		},
		{
			"bufferView":16,
			"componentType":5126,
			"count":1064,
			"type":"VEC3"
		},
		{
			"bufferView":17,
			"componentType":5126,
			"count":1064,
			"type":"VEC2"
		},
		{
			"bufferView":18,
			"componentType":5126,
			"count":64,
			"max":[
				0.08657234162092209,
				-1.1216343641281128,
				2.676513433456421
			],
			"min":[
				-2.7371435165405273,
				-4.771955490112305,
				-1.0265671014785767
			],
			"type":"VEC3"
		},
		{
			"bufferView":19,
			"componentType":5126,
			"count":64,
			"type":"VEC3"
		},
		{
			"bufferView":20,
			"componentType":5126,
			"count":64,
			"type":"VEC2"
		},
		{
			"bufferView":21,
			"componentType":5126,
			"count":2,
			"max":[
				10.416666666666666
			],
			"min":[
				0
			],
			"type":"SCALAR"
		},
		{
			"bufferView":22,
			"componentType":5126,
			"count":2,
			"type":"VEC3"
		},
		{
			"bufferView":23,
			"componentType":5126,
			"count":2,
			"type":"VEC4"
		},
		{
			"bufferView":24,
			"componentType":5126,
			"count":251,
			"max":[
				10.416666666666666
			],
			"min":[
				0
			],
			"type":"SCALAR"
		},
		{
			"bufferView":25,
			"componentType":5126,
			"count":251,
			"type":"VEC3"
		},
		{
			"bufferView":26,
			"componentType":5126,
			"count":251,
			"type":"VEC4"
		},
		{
			"bufferView":27,
			"componentType":5126,
			"count":251,
			"type":"VEC3"
		},
		{
			"bufferView":28,
			"componentType":5126,
			"count":251,
			"type":"VEC4"
		}
	],
	"bufferViews":[
		{
			"buffer":0,
			"byteLength":80172,
			"byteOffset":0,
			"target":34962
		},
		{
			"buffer":0,
			"byteLength":80172,
			"byteOffset":80172,
			"target":34962
		},
		{
			"buffer":0,
			"byteLength":53448,
			"byteOffset":160344,
			"target":34962
		},
		{
			"buffer":0,
			"byteLength":22296,
			"byteOffset":213792,
			"target":34963
		},
		{
			"buffer":0,
			"byteLength":12768,
			"byteOffset":236088,
			"target":34962
		},
		{
			"buffer":0,
			"byteLength":12768,
			"byteOffset":248856,
			"target":34962
		},
		{
			"buffer":0,
			"byteLength":8512,
			"byteOffset":261624,
			"target":34962
		},
		{
			"buffer":0,
			"byteLength":3360,
			"byteOffset":270136,
			"target":34963
		},
		{
			"buffer":0,
			"byteLength":768,
			"byteOffset":273496,
			"target":34962
		},
		{
			"buffer":0,
			"byteLength":768,
			"byteOffset":274264,
			"target":34962
		},
		{
			"buffer":0,
			"byteLength":512,
			"byteOffset":275032,
			"target":34962
		},
		{
			"buffer":0,
			"byteLength":360,
			"byteOffset":275544,
			"target":34963
		},
		{
			"buffer":0,
			"byteLength":80172,
			"byteOffset":275904,
			"target":34962
		},
		{
			"buffer":0,
			"byteLength":80172,
			"byteOffset":356076,
			"target":34962
		},
		{
			"buffer":0,
			"byteLength":53448,
			"byteOffset":436248,
			"target":34962
		},
		{
			"buffer":0,
			"byteLength":12768,
			"byteOffset":489696,
			"target":34962
		},
		{
			"buffer":0,
			"byteLength":12768,
			"byteOffset":502464,
			"target":34962
		},
		{
			"buffer":0,
			"byteLength":8512,
			"byteOffset":515232,
			"target":34962
		},
		{
			"buffer":0,
			"byteLength":768,
			"byteOffset":523744,
			"target":34962
		},
		{
			"buffer":0,
			"byteLength":768,
			"byteOffset":524512,
			"target":34962
		},
		{
			"buffer":0,
			"byteLength":512,
			"byteOffset":525280,
			"target":34962
		},
		{
			"buffer":0,
			"byteLength":8,
			"byteOffset":525792
		},
		{
			"buffer":0,
			"byteLength":24,
			"byteOffset":525800
		},
		{
			"buffer":0,
			"byteLength":32,
			"byteOffset":525824
		},
		{
			"buffer":0,
			"byteLength":1004,
			"byteOffset":525856
		},
		{
			"buffer":0,
			"byteLength":3012,
			"byteOffset":526860
		},
		{
			"buffer":0,
			"byteLength":4016,
			"byteOffset":529872
		},
		{
			"buffer":0,
			"byteLength":3012,
			"byteOffset":533888
		},
		{
			"buffer":0,
			"byteLength":4016,
			"byteOffset":536900
		}
	],
	"buffers":[
		{
			"byteLength":540916,
			"uri":"scene.bin"
		}
	]
}
